<mxfile host="app.diagrams.net" agent="Mozilla/5.0 (Windows NT 10.0; Win64; x64) AppleWebKit/537.36 (KHTML, like Gecko) Chrome/139.0.0.0 Safari/537.36" version="28.1.1">
  <diagram name="Page-1" id="PZPN_fEjXWrEn2Io5gSA">
    <mxGraphModel dx="1601" dy="1744" grid="1" gridSize="10" guides="1" tooltips="1" connect="1" arrows="1" fold="1" page="1" pageScale="1" pageWidth="850" pageHeight="1100" math="0" shadow="0">
      <root>
        <mxCell id="0" />
        <mxCell id="1" parent="0" />
        <mxCell id="c0u2R1RDuHglgpXvtMJw-1" value="Passenger" style="rounded=0;whiteSpace=wrap;html=1;" parent="1" vertex="1">
          <mxGeometry x="280" y="240" width="120" height="60" as="geometry" />
        </mxCell>
        <mxCell id="c0u2R1RDuHglgpXvtMJw-2" value="Train" style="rounded=0;whiteSpace=wrap;html=1;" parent="1" vertex="1">
          <mxGeometry x="810" y="630" width="120" height="60" as="geometry" />
        </mxCell>
        <mxCell id="c0u2R1RDuHglgpXvtMJw-3" value="Ticket" style="rounded=0;whiteSpace=wrap;html=1;" parent="1" vertex="1">
          <mxGeometry x="720" y="240" width="120" height="60" as="geometry" />
        </mxCell>
        <mxCell id="c0u2R1RDuHglgpXvtMJw-5" value="Payment" style="rounded=0;whiteSpace=wrap;html=1;" parent="1" vertex="1">
          <mxGeometry x="270" y="520" width="120" height="60" as="geometry" />
        </mxCell>
        <mxCell id="c0u2R1RDuHglgpXvtMJw-6" value="&lt;strong data-end=&quot;589&quot; data-start=&quot;578&quot;&gt;Station&lt;/strong&gt;" style="rounded=0;whiteSpace=wrap;html=1;" parent="1" vertex="1">
          <mxGeometry x="580" y="840" width="120" height="60" as="geometry" />
        </mxCell>
        <mxCell id="c0u2R1RDuHglgpXvtMJw-7" value="Name" style="ellipse;whiteSpace=wrap;html=1;" parent="1" vertex="1">
          <mxGeometry x="200" y="70" width="120" height="80" as="geometry" />
        </mxCell>
        <mxCell id="c0u2R1RDuHglgpXvtMJw-8" value="Age" style="ellipse;whiteSpace=wrap;html=1;" parent="1" vertex="1">
          <mxGeometry x="110" y="150" width="120" height="80" as="geometry" />
        </mxCell>
        <mxCell id="c0u2R1RDuHglgpXvtMJw-9" value="Gender" style="ellipse;whiteSpace=wrap;html=1;" parent="1" vertex="1">
          <mxGeometry x="110" y="250" width="120" height="80" as="geometry" />
        </mxCell>
        <mxCell id="c0u2R1RDuHglgpXvtMJw-10" value="&lt;u&gt;Passenger_ID&lt;/u&gt;" style="ellipse;whiteSpace=wrap;html=1;" parent="1" vertex="1">
          <mxGeometry x="340" y="70" width="120" height="80" as="geometry" />
        </mxCell>
        <mxCell id="c0u2R1RDuHglgpXvtMJw-11" value="Phone Number" style="ellipse;whiteSpace=wrap;html=1;" parent="1" vertex="1">
          <mxGeometry x="110" y="350" width="135" height="90" as="geometry" />
        </mxCell>
        <mxCell id="c0u2R1RDuHglgpXvtMJw-12" value="" style="endArrow=none;html=1;rounded=0;entryX=0.5;entryY=1;entryDx=0;entryDy=0;exitX=0.5;exitY=0;exitDx=0;exitDy=0;" parent="1" source="c0u2R1RDuHglgpXvtMJw-1" target="c0u2R1RDuHglgpXvtMJw-10" edge="1">
          <mxGeometry width="50" height="50" relative="1" as="geometry">
            <mxPoint x="150" y="220" as="sourcePoint" />
            <mxPoint x="200" y="170" as="targetPoint" />
          </mxGeometry>
        </mxCell>
        <mxCell id="c0u2R1RDuHglgpXvtMJw-13" value="" style="endArrow=none;html=1;rounded=0;entryX=0.5;entryY=1;entryDx=0;entryDy=0;exitX=0.25;exitY=0;exitDx=0;exitDy=0;" parent="1" source="c0u2R1RDuHglgpXvtMJw-1" target="c0u2R1RDuHglgpXvtMJw-7" edge="1">
          <mxGeometry width="50" height="50" relative="1" as="geometry">
            <mxPoint x="350" y="250" as="sourcePoint" />
            <mxPoint x="410" y="160" as="targetPoint" />
          </mxGeometry>
        </mxCell>
        <mxCell id="c0u2R1RDuHglgpXvtMJw-17" value="" style="endArrow=none;html=1;rounded=0;entryX=1;entryY=0.5;entryDx=0;entryDy=0;exitX=0;exitY=0;exitDx=0;exitDy=0;" parent="1" source="c0u2R1RDuHglgpXvtMJw-1" target="c0u2R1RDuHglgpXvtMJw-8" edge="1">
          <mxGeometry width="50" height="50" relative="1" as="geometry">
            <mxPoint x="360" y="260" as="sourcePoint" />
            <mxPoint x="270" y="160" as="targetPoint" />
          </mxGeometry>
        </mxCell>
        <mxCell id="c0u2R1RDuHglgpXvtMJw-18" value="" style="endArrow=none;html=1;rounded=0;entryX=1;entryY=0.5;entryDx=0;entryDy=0;exitX=0;exitY=0.5;exitDx=0;exitDy=0;" parent="1" source="c0u2R1RDuHglgpXvtMJw-1" target="c0u2R1RDuHglgpXvtMJw-9" edge="1">
          <mxGeometry width="50" height="50" relative="1" as="geometry">
            <mxPoint x="370" y="270" as="sourcePoint" />
            <mxPoint x="240" y="200" as="targetPoint" />
          </mxGeometry>
        </mxCell>
        <mxCell id="c0u2R1RDuHglgpXvtMJw-19" value="" style="endArrow=none;html=1;rounded=0;entryX=1;entryY=0.5;entryDx=0;entryDy=0;exitX=0;exitY=1;exitDx=0;exitDy=0;" parent="1" source="c0u2R1RDuHglgpXvtMJw-1" target="c0u2R1RDuHglgpXvtMJw-11" edge="1">
          <mxGeometry width="50" height="50" relative="1" as="geometry">
            <mxPoint x="380" y="280" as="sourcePoint" />
            <mxPoint x="240" y="300" as="targetPoint" />
          </mxGeometry>
        </mxCell>
        <mxCell id="c0u2R1RDuHglgpXvtMJw-21" value="&lt;u&gt;Train_No&amp;nbsp;&lt;/u&gt;" style="ellipse;whiteSpace=wrap;html=1;" parent="1" vertex="1">
          <mxGeometry x="850" y="460" width="120" height="80" as="geometry" />
        </mxCell>
        <mxCell id="c0u2R1RDuHglgpXvtMJw-22" value="Train_Name" style="ellipse;whiteSpace=wrap;html=1;" parent="1" vertex="1">
          <mxGeometry x="990" y="510" width="120" height="80" as="geometry" />
        </mxCell>
        <mxCell id="c0u2R1RDuHglgpXvtMJw-23" value="Source" style="ellipse;whiteSpace=wrap;html=1;" parent="1" vertex="1">
          <mxGeometry x="990" y="620" width="120" height="80" as="geometry" />
        </mxCell>
        <mxCell id="c0u2R1RDuHglgpXvtMJw-24" value="Destination" style="ellipse;whiteSpace=wrap;html=1;" parent="1" vertex="1">
          <mxGeometry x="960" y="720" width="120" height="80" as="geometry" />
        </mxCell>
        <mxCell id="14Ywkw1TNJLI_AWeaor3-1" value="" style="endArrow=none;html=1;rounded=0;entryX=0.5;entryY=1;entryDx=0;entryDy=0;exitX=0.5;exitY=0;exitDx=0;exitDy=0;" edge="1" parent="1" source="c0u2R1RDuHglgpXvtMJw-2" target="c0u2R1RDuHglgpXvtMJw-21">
          <mxGeometry width="50" height="50" relative="1" as="geometry">
            <mxPoint x="950" y="550" as="sourcePoint" />
            <mxPoint x="1000" y="500" as="targetPoint" />
          </mxGeometry>
        </mxCell>
        <mxCell id="14Ywkw1TNJLI_AWeaor3-2" value="" style="endArrow=none;html=1;rounded=0;entryX=1;entryY=0;entryDx=0;entryDy=0;exitX=0;exitY=0.5;exitDx=0;exitDy=0;" edge="1" parent="1" source="c0u2R1RDuHglgpXvtMJw-22" target="c0u2R1RDuHglgpXvtMJw-2">
          <mxGeometry width="50" height="50" relative="1" as="geometry">
            <mxPoint x="960" y="560" as="sourcePoint" />
            <mxPoint x="1010" y="510" as="targetPoint" />
          </mxGeometry>
        </mxCell>
        <mxCell id="14Ywkw1TNJLI_AWeaor3-3" value="" style="endArrow=none;html=1;rounded=0;entryX=0;entryY=0.5;entryDx=0;entryDy=0;exitX=1;exitY=0.5;exitDx=0;exitDy=0;" edge="1" parent="1" source="c0u2R1RDuHglgpXvtMJw-2" target="c0u2R1RDuHglgpXvtMJw-23">
          <mxGeometry width="50" height="50" relative="1" as="geometry">
            <mxPoint x="970" y="570" as="sourcePoint" />
            <mxPoint x="1020" y="520" as="targetPoint" />
          </mxGeometry>
        </mxCell>
        <mxCell id="14Ywkw1TNJLI_AWeaor3-4" value="" style="endArrow=none;html=1;rounded=0;entryX=0;entryY=0.5;entryDx=0;entryDy=0;exitX=1;exitY=1;exitDx=0;exitDy=0;" edge="1" parent="1" source="c0u2R1RDuHglgpXvtMJw-2" target="c0u2R1RDuHglgpXvtMJw-24">
          <mxGeometry width="50" height="50" relative="1" as="geometry">
            <mxPoint x="980" y="580" as="sourcePoint" />
            <mxPoint x="1030" y="530" as="targetPoint" />
          </mxGeometry>
        </mxCell>
        <mxCell id="14Ywkw1TNJLI_AWeaor3-5" value="&lt;u&gt;Ticket_ID&lt;/u&gt;" style="ellipse;whiteSpace=wrap;html=1;" vertex="1" parent="1">
          <mxGeometry x="870" y="140" width="120" height="80" as="geometry" />
        </mxCell>
        <mxCell id="14Ywkw1TNJLI_AWeaor3-6" value="Status&amp;nbsp;" style="ellipse;whiteSpace=wrap;html=1;" vertex="1" parent="1">
          <mxGeometry x="737.5" y="105" width="120" height="80" as="geometry" />
        </mxCell>
        <mxCell id="14Ywkw1TNJLI_AWeaor3-7" value="Journey_Date" style="ellipse;whiteSpace=wrap;html=1;" vertex="1" parent="1">
          <mxGeometry x="895" y="330" width="120" height="80" as="geometry" />
        </mxCell>
        <mxCell id="14Ywkw1TNJLI_AWeaor3-8" value="&lt;u&gt;PNR_No&lt;/u&gt;" style="ellipse;whiteSpace=wrap;html=1;" vertex="1" parent="1">
          <mxGeometry x="960" y="230" width="120" height="80" as="geometry" />
        </mxCell>
        <mxCell id="14Ywkw1TNJLI_AWeaor3-9" value="" style="endArrow=none;html=1;rounded=0;entryX=0;entryY=0.5;entryDx=0;entryDy=0;exitX=1;exitY=0;exitDx=0;exitDy=0;" edge="1" parent="1" source="c0u2R1RDuHglgpXvtMJw-3" target="14Ywkw1TNJLI_AWeaor3-5">
          <mxGeometry width="50" height="50" relative="1" as="geometry">
            <mxPoint x="640" y="820" as="sourcePoint" />
            <mxPoint x="690" y="770" as="targetPoint" />
          </mxGeometry>
        </mxCell>
        <mxCell id="14Ywkw1TNJLI_AWeaor3-10" value="" style="endArrow=none;html=1;rounded=0;entryX=0;entryY=0.5;entryDx=0;entryDy=0;exitX=1;exitY=0.5;exitDx=0;exitDy=0;" edge="1" parent="1" source="c0u2R1RDuHglgpXvtMJw-3" target="14Ywkw1TNJLI_AWeaor3-8">
          <mxGeometry width="50" height="50" relative="1" as="geometry">
            <mxPoint x="650" y="830" as="sourcePoint" />
            <mxPoint x="700" y="780" as="targetPoint" />
          </mxGeometry>
        </mxCell>
        <mxCell id="14Ywkw1TNJLI_AWeaor3-11" value="" style="endArrow=none;html=1;rounded=0;entryX=0.5;entryY=0;entryDx=0;entryDy=0;exitX=1;exitY=1;exitDx=0;exitDy=0;" edge="1" parent="1" source="c0u2R1RDuHglgpXvtMJw-3" target="14Ywkw1TNJLI_AWeaor3-7">
          <mxGeometry width="50" height="50" relative="1" as="geometry">
            <mxPoint x="660" y="840" as="sourcePoint" />
            <mxPoint x="710" y="790" as="targetPoint" />
          </mxGeometry>
        </mxCell>
        <mxCell id="14Ywkw1TNJLI_AWeaor3-12" value="" style="endArrow=none;html=1;rounded=0;entryX=0.5;entryY=1;entryDx=0;entryDy=0;exitX=0.5;exitY=0;exitDx=0;exitDy=0;" edge="1" parent="1" source="c0u2R1RDuHglgpXvtMJw-3" target="14Ywkw1TNJLI_AWeaor3-6">
          <mxGeometry width="50" height="50" relative="1" as="geometry">
            <mxPoint x="670" y="850" as="sourcePoint" />
            <mxPoint x="720" y="800" as="targetPoint" />
          </mxGeometry>
        </mxCell>
        <mxCell id="14Ywkw1TNJLI_AWeaor3-13" value="Confirmed" style="ellipse;whiteSpace=wrap;html=1;" vertex="1" parent="1">
          <mxGeometry x="678.75" y="20" width="75" height="50" as="geometry" />
        </mxCell>
        <mxCell id="14Ywkw1TNJLI_AWeaor3-14" value="RAC" style="ellipse;whiteSpace=wrap;html=1;" vertex="1" parent="1">
          <mxGeometry x="760" y="-10" width="75" height="50" as="geometry" />
        </mxCell>
        <mxCell id="14Ywkw1TNJLI_AWeaor3-15" value="Waiting" style="ellipse;whiteSpace=wrap;html=1;" vertex="1" parent="1">
          <mxGeometry x="841.25" y="20" width="75" height="50" as="geometry" />
        </mxCell>
        <mxCell id="14Ywkw1TNJLI_AWeaor3-16" value="" style="endArrow=none;html=1;rounded=0;entryX=0;entryY=1;entryDx=0;entryDy=0;exitX=0.5;exitY=0;exitDx=0;exitDy=0;" edge="1" parent="1" source="14Ywkw1TNJLI_AWeaor3-6" target="14Ywkw1TNJLI_AWeaor3-15">
          <mxGeometry width="50" height="50" relative="1" as="geometry">
            <mxPoint x="630" y="715" as="sourcePoint" />
            <mxPoint x="680" y="665" as="targetPoint" />
          </mxGeometry>
        </mxCell>
        <mxCell id="14Ywkw1TNJLI_AWeaor3-17" value="" style="endArrow=none;html=1;rounded=0;entryX=0.5;entryY=0;entryDx=0;entryDy=0;exitX=1;exitY=1;exitDx=0;exitDy=0;" edge="1" parent="1" source="14Ywkw1TNJLI_AWeaor3-13" target="14Ywkw1TNJLI_AWeaor3-6">
          <mxGeometry width="50" height="50" relative="1" as="geometry">
            <mxPoint x="640" y="725" as="sourcePoint" />
            <mxPoint x="690" y="675" as="targetPoint" />
          </mxGeometry>
        </mxCell>
        <mxCell id="14Ywkw1TNJLI_AWeaor3-18" value="" style="endArrow=none;html=1;rounded=0;entryX=0.5;entryY=0;entryDx=0;entryDy=0;exitX=0.5;exitY=1;exitDx=0;exitDy=0;" edge="1" parent="1" source="14Ywkw1TNJLI_AWeaor3-14" target="14Ywkw1TNJLI_AWeaor3-6">
          <mxGeometry width="50" height="50" relative="1" as="geometry">
            <mxPoint x="650" y="735" as="sourcePoint" />
            <mxPoint x="700" y="685" as="targetPoint" />
          </mxGeometry>
        </mxCell>
        <mxCell id="14Ywkw1TNJLI_AWeaor3-19" value="&lt;u&gt;Payment_ID &lt;/u&gt;" style="ellipse;whiteSpace=wrap;html=1;" vertex="1" parent="1">
          <mxGeometry x="100" y="500" width="120" height="80" as="geometry" />
        </mxCell>
        <mxCell id="14Ywkw1TNJLI_AWeaor3-20" value="Status" style="ellipse;whiteSpace=wrap;html=1;" vertex="1" parent="1">
          <mxGeometry x="380" y="660" width="120" height="80" as="geometry" />
        </mxCell>
        <mxCell id="14Ywkw1TNJLI_AWeaor3-21" value="Amount" style="ellipse;whiteSpace=wrap;html=1;" vertex="1" parent="1">
          <mxGeometry x="240" y="660" width="120" height="80" as="geometry" />
        </mxCell>
        <mxCell id="14Ywkw1TNJLI_AWeaor3-22" value="Mode " style="ellipse;whiteSpace=wrap;html=1;" vertex="1" parent="1">
          <mxGeometry x="110" y="600" width="120" height="80" as="geometry" />
        </mxCell>
        <mxCell id="14Ywkw1TNJLI_AWeaor3-23" value="Location" style="ellipse;whiteSpace=wrap;html=1;" vertex="1" parent="1">
          <mxGeometry x="540" y="960" width="120" height="80" as="geometry" />
        </mxCell>
        <mxCell id="14Ywkw1TNJLI_AWeaor3-24" value="Station_Name" style="ellipse;whiteSpace=wrap;html=1;" vertex="1" parent="1">
          <mxGeometry x="400" y="960" width="120" height="80" as="geometry" />
        </mxCell>
        <mxCell id="14Ywkw1TNJLI_AWeaor3-25" value="&lt;u&gt;Station_Code &lt;/u&gt;" style="ellipse;whiteSpace=wrap;html=1;" vertex="1" parent="1">
          <mxGeometry x="390" y="860" width="120" height="80" as="geometry" />
        </mxCell>
        <mxCell id="14Ywkw1TNJLI_AWeaor3-26" value="" style="endArrow=none;html=1;rounded=0;entryX=0;entryY=0.5;entryDx=0;entryDy=0;exitX=1;exitY=0.5;exitDx=0;exitDy=0;" edge="1" parent="1" source="14Ywkw1TNJLI_AWeaor3-25" target="c0u2R1RDuHglgpXvtMJw-6">
          <mxGeometry width="50" height="50" relative="1" as="geometry">
            <mxPoint x="505" y="850" as="sourcePoint" />
            <mxPoint x="555" y="800" as="targetPoint" />
          </mxGeometry>
        </mxCell>
        <mxCell id="14Ywkw1TNJLI_AWeaor3-27" value="" style="endArrow=none;html=1;rounded=0;entryX=0;entryY=1;entryDx=0;entryDy=0;exitX=1;exitY=0;exitDx=0;exitDy=0;" edge="1" parent="1" source="14Ywkw1TNJLI_AWeaor3-24" target="c0u2R1RDuHglgpXvtMJw-6">
          <mxGeometry width="50" height="50" relative="1" as="geometry">
            <mxPoint x="515" y="860" as="sourcePoint" />
            <mxPoint x="565" y="810" as="targetPoint" />
          </mxGeometry>
        </mxCell>
        <mxCell id="14Ywkw1TNJLI_AWeaor3-28" value="" style="endArrow=none;html=1;rounded=0;entryX=0.5;entryY=1;entryDx=0;entryDy=0;exitX=0.5;exitY=0;exitDx=0;exitDy=0;" edge="1" parent="1" source="14Ywkw1TNJLI_AWeaor3-23" target="c0u2R1RDuHglgpXvtMJw-6">
          <mxGeometry width="50" height="50" relative="1" as="geometry">
            <mxPoint x="525" y="870" as="sourcePoint" />
            <mxPoint x="575" y="820" as="targetPoint" />
          </mxGeometry>
        </mxCell>
        <mxCell id="14Ywkw1TNJLI_AWeaor3-29" value="" style="endArrow=none;html=1;rounded=0;entryX=0;entryY=1;entryDx=0;entryDy=0;exitX=1;exitY=0.5;exitDx=0;exitDy=0;" edge="1" parent="1" source="14Ywkw1TNJLI_AWeaor3-22" target="c0u2R1RDuHglgpXvtMJw-5">
          <mxGeometry width="50" height="50" relative="1" as="geometry">
            <mxPoint x="400" y="730" as="sourcePoint" />
            <mxPoint x="450" y="680" as="targetPoint" />
          </mxGeometry>
        </mxCell>
        <mxCell id="14Ywkw1TNJLI_AWeaor3-30" value="" style="endArrow=none;html=1;rounded=0;entryX=0;entryY=0.5;entryDx=0;entryDy=0;exitX=1;exitY=0.5;exitDx=0;exitDy=0;" edge="1" parent="1" source="14Ywkw1TNJLI_AWeaor3-19" target="c0u2R1RDuHglgpXvtMJw-5">
          <mxGeometry width="50" height="50" relative="1" as="geometry">
            <mxPoint x="410" y="740" as="sourcePoint" />
            <mxPoint x="460" y="690" as="targetPoint" />
          </mxGeometry>
        </mxCell>
        <mxCell id="14Ywkw1TNJLI_AWeaor3-31" value="" style="endArrow=none;html=1;rounded=0;exitX=0.5;exitY=0;exitDx=0;exitDy=0;entryX=0.5;entryY=1;entryDx=0;entryDy=0;" edge="1" parent="1" source="14Ywkw1TNJLI_AWeaor3-20" target="c0u2R1RDuHglgpXvtMJw-5">
          <mxGeometry width="50" height="50" relative="1" as="geometry">
            <mxPoint x="440" y="680" as="sourcePoint" />
            <mxPoint x="470" y="700" as="targetPoint" />
          </mxGeometry>
        </mxCell>
        <mxCell id="14Ywkw1TNJLI_AWeaor3-32" value="" style="endArrow=none;html=1;rounded=0;exitX=0.5;exitY=0;exitDx=0;exitDy=0;entryX=0.25;entryY=1;entryDx=0;entryDy=0;" edge="1" parent="1" source="14Ywkw1TNJLI_AWeaor3-21" target="c0u2R1RDuHglgpXvtMJw-5">
          <mxGeometry width="50" height="50" relative="1" as="geometry">
            <mxPoint x="430" y="760" as="sourcePoint" />
            <mxPoint x="480" y="710" as="targetPoint" />
          </mxGeometry>
        </mxCell>
        <mxCell id="14Ywkw1TNJLI_AWeaor3-33" value="Books Ticket" style="rhombus;whiteSpace=wrap;html=1;" vertex="1" parent="1">
          <mxGeometry x="510" y="240" width="100" height="70" as="geometry" />
        </mxCell>
        <mxCell id="14Ywkw1TNJLI_AWeaor3-36" value="" style="endArrow=none;html=1;rounded=0;entryX=0;entryY=0.5;entryDx=0;entryDy=0;exitX=1;exitY=0.5;exitDx=0;exitDy=0;" edge="1" parent="1" source="c0u2R1RDuHglgpXvtMJw-1" target="14Ywkw1TNJLI_AWeaor3-33">
          <mxGeometry width="50" height="50" relative="1" as="geometry">
            <mxPoint x="620" y="285" as="sourcePoint" />
            <mxPoint x="730" y="280" as="targetPoint" />
          </mxGeometry>
        </mxCell>
        <mxCell id="14Ywkw1TNJLI_AWeaor3-37" value="1" style="text;html=1;align=center;verticalAlign=middle;resizable=0;points=[];autosize=1;strokeColor=none;fillColor=none;" vertex="1" parent="1">
          <mxGeometry x="435" y="240" width="30" height="30" as="geometry" />
        </mxCell>
        <mxCell id="14Ywkw1TNJLI_AWeaor3-38" value="m" style="text;html=1;align=center;verticalAlign=middle;resizable=0;points=[];autosize=1;strokeColor=none;fillColor=none;" vertex="1" parent="1">
          <mxGeometry x="645" y="238" width="30" height="30" as="geometry" />
        </mxCell>
        <mxCell id="14Ywkw1TNJLI_AWeaor3-39" value="Ticket&amp;nbsp;&lt;div&gt;Confirmation&amp;nbsp;&lt;/div&gt;&lt;div&gt;in Train&lt;/div&gt;" style="rhombus;whiteSpace=wrap;html=1;" vertex="1" parent="1">
          <mxGeometry x="678.75" y="470" width="120" height="100" as="geometry" />
        </mxCell>
        <mxCell id="14Ywkw1TNJLI_AWeaor3-42" value="" style="endArrow=none;html=1;rounded=0;entryX=0.5;entryY=1;entryDx=0;entryDy=0;exitX=0;exitY=0;exitDx=0;exitDy=0;" edge="1" parent="1" source="c0u2R1RDuHglgpXvtMJw-2" target="14Ywkw1TNJLI_AWeaor3-39">
          <mxGeometry width="50" height="50" relative="1" as="geometry">
            <mxPoint x="749" y="480" as="sourcePoint" />
            <mxPoint x="790" y="310" as="targetPoint" />
          </mxGeometry>
        </mxCell>
        <mxCell id="14Ywkw1TNJLI_AWeaor3-43" value="m" style="text;html=1;align=center;verticalAlign=middle;resizable=0;points=[];autosize=1;strokeColor=none;fillColor=none;" vertex="1" parent="1">
          <mxGeometry x="765" y="375" width="30" height="30" as="geometry" />
        </mxCell>
        <mxCell id="14Ywkw1TNJLI_AWeaor3-44" value="1" style="text;html=1;align=center;verticalAlign=middle;resizable=0;points=[];autosize=1;strokeColor=none;fillColor=none;" vertex="1" parent="1">
          <mxGeometry x="780" y="580" width="30" height="30" as="geometry" />
        </mxCell>
        <mxCell id="14Ywkw1TNJLI_AWeaor3-45" value="payment transaction" style="rhombus;whiteSpace=wrap;html=1;" vertex="1" parent="1">
          <mxGeometry x="480" y="405" width="110" height="80" as="geometry" />
        </mxCell>
        <mxCell id="14Ywkw1TNJLI_AWeaor3-48" value="1" style="text;html=1;align=center;verticalAlign=middle;resizable=0;points=[];autosize=1;strokeColor=none;fillColor=none;" vertex="1" parent="1">
          <mxGeometry x="405" y="468" width="30" height="30" as="geometry" />
        </mxCell>
        <mxCell id="14Ywkw1TNJLI_AWeaor3-49" value="1" style="text;html=1;align=center;verticalAlign=middle;resizable=0;points=[];autosize=1;strokeColor=none;fillColor=none;" vertex="1" parent="1">
          <mxGeometry x="650" y="370" width="30" height="30" as="geometry" />
        </mxCell>
        <mxCell id="14Ywkw1TNJLI_AWeaor3-51" value="Arrives at /&lt;div&gt;leaves&amp;nbsp;&lt;/div&gt;&lt;div&gt;from&lt;/div&gt;" style="rhombus;whiteSpace=wrap;html=1;" vertex="1" parent="1">
          <mxGeometry x="690" y="710" width="120" height="100" as="geometry" />
        </mxCell>
        <mxCell id="14Ywkw1TNJLI_AWeaor3-54" value="m" style="text;html=1;align=center;verticalAlign=middle;resizable=0;points=[];autosize=1;strokeColor=none;fillColor=none;" vertex="1" parent="1">
          <mxGeometry x="755" y="668" width="30" height="30" as="geometry" />
        </mxCell>
        <mxCell id="14Ywkw1TNJLI_AWeaor3-56" value="n" style="text;html=1;align=center;verticalAlign=middle;resizable=0;points=[];autosize=1;strokeColor=none;fillColor=none;" vertex="1" parent="1">
          <mxGeometry x="707.5" y="830" width="30" height="30" as="geometry" />
        </mxCell>
        <mxCell id="14Ywkw1TNJLI_AWeaor3-57" value="" style="shape=link;html=1;rounded=0;entryX=0;entryY=0.5;entryDx=0;entryDy=0;exitX=1;exitY=0.75;exitDx=0;exitDy=0;" edge="1" parent="1" source="c0u2R1RDuHglgpXvtMJw-5" target="14Ywkw1TNJLI_AWeaor3-45">
          <mxGeometry width="100" relative="1" as="geometry">
            <mxPoint x="430" y="510" as="sourcePoint" />
            <mxPoint x="530" y="510" as="targetPoint" />
          </mxGeometry>
        </mxCell>
        <mxCell id="14Ywkw1TNJLI_AWeaor3-58" value="" style="shape=link;html=1;rounded=0;entryX=0.5;entryY=1;entryDx=0;entryDy=0;exitX=0.5;exitY=0;exitDx=0;exitDy=0;" edge="1" parent="1" source="14Ywkw1TNJLI_AWeaor3-39" target="c0u2R1RDuHglgpXvtMJw-3">
          <mxGeometry width="100" relative="1" as="geometry">
            <mxPoint x="630" y="505" as="sourcePoint" />
            <mxPoint x="720" y="385" as="targetPoint" />
          </mxGeometry>
        </mxCell>
        <mxCell id="14Ywkw1TNJLI_AWeaor3-59" value="" style="shape=link;html=1;rounded=0;entryX=0;entryY=0.5;entryDx=0;entryDy=0;exitX=1;exitY=0.5;exitDx=0;exitDy=0;" edge="1" parent="1" source="14Ywkw1TNJLI_AWeaor3-33" target="c0u2R1RDuHglgpXvtMJw-3">
          <mxGeometry width="100" relative="1" as="geometry">
            <mxPoint x="749" y="480" as="sourcePoint" />
            <mxPoint x="790" y="310" as="targetPoint" />
          </mxGeometry>
        </mxCell>
        <mxCell id="14Ywkw1TNJLI_AWeaor3-60" value="" style="shape=link;html=1;rounded=0;entryX=0;entryY=1;entryDx=0;entryDy=0;exitX=1;exitY=0.5;exitDx=0;exitDy=0;" edge="1" parent="1" source="14Ywkw1TNJLI_AWeaor3-45" target="c0u2R1RDuHglgpXvtMJw-3">
          <mxGeometry width="100" relative="1" as="geometry">
            <mxPoint x="620" y="285" as="sourcePoint" />
            <mxPoint x="730" y="280" as="targetPoint" />
          </mxGeometry>
        </mxCell>
        <mxCell id="14Ywkw1TNJLI_AWeaor3-62" value="" style="shape=link;html=1;rounded=0;entryX=0;entryY=1;entryDx=0;entryDy=0;exitX=0.5;exitY=0;exitDx=0;exitDy=0;" edge="1" parent="1" source="14Ywkw1TNJLI_AWeaor3-51" target="c0u2R1RDuHglgpXvtMJw-2">
          <mxGeometry width="100" relative="1" as="geometry">
            <mxPoint x="615" y="750" as="sourcePoint" />
            <mxPoint x="705" y="630" as="targetPoint" />
          </mxGeometry>
        </mxCell>
        <mxCell id="14Ywkw1TNJLI_AWeaor3-63" value="" style="shape=link;html=1;rounded=0;entryX=0.5;entryY=1;entryDx=0;entryDy=0;exitX=1;exitY=0;exitDx=0;exitDy=0;" edge="1" parent="1" source="c0u2R1RDuHglgpXvtMJw-6" target="14Ywkw1TNJLI_AWeaor3-51">
          <mxGeometry width="100" relative="1" as="geometry">
            <mxPoint x="625" y="760" as="sourcePoint" />
            <mxPoint x="715" y="640" as="targetPoint" />
          </mxGeometry>
        </mxCell>
        <mxCell id="14Ywkw1TNJLI_AWeaor3-64" value="Phone Number" style="ellipse;whiteSpace=wrap;html=1;" vertex="1" parent="1">
          <mxGeometry x="117.5" y="355" width="120" height="80" as="geometry" />
        </mxCell>
        <mxCell id="14Ywkw1TNJLI_AWeaor3-65" value="&lt;font style=&quot;font-size: 36px;&quot;&gt;IRCTC TICKET BOOKING SYSTEM&amp;nbsp;&lt;/font&gt;&lt;div&gt;&lt;font size=&quot;3&quot;&gt;- ER DIAGRAM&lt;/font&gt;&lt;/div&gt;" style="text;html=1;align=center;verticalAlign=middle;resizable=0;points=[];autosize=1;strokeColor=none;fillColor=none;" vertex="1" parent="1">
          <mxGeometry x="215" y="-140" width="620" height="80" as="geometry" />
        </mxCell>
        <mxCell id="14Ywkw1TNJLI_AWeaor3-66" value="Ticket" style="rounded=0;whiteSpace=wrap;html=1;" vertex="1" parent="1">
          <mxGeometry x="725" y="245" width="110" height="50" as="geometry" />
        </mxCell>
      </root>
    </mxGraphModel>
  </diagram>
</mxfile>
